<svg xmlns="http://www.w3.org/2000/svg"  viewBox="0 0 256 256" width="128px" height="128px"><circle cx="128" cy="128" r="113.633" fill="#FF4A73"/><circle cx="128" cy="128" r="89.834" fill="#FFE2E2"/><path fill="#FFEFEE" d="M135.5,217.52c-2.47,0.21-4.97,0.31-7.5,0.31c-49.61,0-89.83-40.22-89.83-89.83 S78.39,38.17,128,38.17c2.53,0,5.03,0.1,7.5,0.31C89.4,42.29,53.17,80.92,53.17,128C53.17,175.08,89.4,213.71,135.5,217.52z"/><path fill="#FFCFCF" d="M217.83,128c0,49.61-40.22,89.83-89.83,89.83c-2.53,0-5.03-0.1-7.5-0.31 c46.1-3.81,82.33-42.44,82.33-89.52c0-47.08-36.23-85.71-82.33-89.52c2.47-0.21,4.97-0.31,7.5-0.31 C177.61,38.17,217.83,78.39,217.83,128z"/><g><path fill="#5F266D" d="M128,10.367C63.137,10.367,10.367,63.137,10.367,128S63.137,245.633,128,245.633 S245.633,192.863,245.633,128S192.863,10.367,128,10.367z M128,237.633c-60.452,0-109.633-49.181-109.633-109.633 S67.548,18.367,128,18.367S237.633,67.548,237.633,128S188.452,237.633,128,237.633z"/><path fill="#5F266D" d="M128,34.167c-51.733,0-93.833,42.106-93.833,93.833c0,51.74,42.094,93.833,93.833,93.833 c51.702,0,93.833-42.066,93.833-93.833C221.833,76.26,179.74,34.167,128,34.167z M128,42.167 c47.329,0,85.833,38.505,85.833,85.833c0,22.763-8.924,43.469-23.436,58.848l-31.009-27.989c0.595-2.098,0.92-4.309,0.92-6.595 v-8.088c0-13.355-10.865-24.22-24.22-24.22H132V87.515h4.088c8.944,0,16.22,7.276,16.22,16.221c0,2.209,1.791,4,4,4s4-1.792,4-4 c0-13.355-10.865-24.22-24.22-24.22H132v-4.088c0-2.209-1.791-4-4-4s-4,1.791-4,4v4.088h-4.088 c-10.618,0-19.655,6.871-22.917,16.398L66.409,68.306C82.02,52.203,103.854,42.167,128,42.167z M152.309,152.265 c0,8.944-7.276,16.22-16.22,16.22H132v-40.529h4.088c8.944,0,16.22,7.276,16.22,16.22V152.265z M124,119.956h-4.088 c-8.944,0-16.22-7.276-16.22-16.221c0-8.944,7.276-16.22,16.22-16.22H124V119.956z M42.167,128c0-20.311,7.106-38.985,18.943-53.7 l34.659,31.283c0.948,12.494,11.41,22.373,24.143,22.373H124v40.529h-4.088c-8.944,0-16.22-7.276-16.22-16.22c0-2.209-1.791-4-4-4 s-4,1.791-4,4c0,13.355,10.865,24.22,24.22,24.22H124v4.088c0,2.209,1.791,4,4,4s4-1.791,4-4v-4.088h4.088 c8.098,0,15.275-3.999,19.675-10.121l28.868,26.056c-15.126,13.313-34.945,21.413-56.631,21.413 C80.671,213.833,42.167,175.329,42.167,128z"/><path fill="#5F266D" d="M193.858,125.442c0,3.292-0.207,6.614-0.615,9.875c-0.274,2.192,1.28,4.191,3.473,4.466 c2.196,0.274,4.192-1.284,4.466-3.473c0.449-3.589,0.677-7.246,0.677-10.868c0-17.969-5.491-30.106-5.724-30.614 c-0.923-2.004-3.292-2.878-5.296-1.961c-2.006,0.918-2.888,3.29-1.975,5.298C188.913,98.274,193.858,109.328,193.858,125.442z"/><path fill="#5F266D" d="M189.426,162.302c2.029,0.869,4.381-0.071,5.251-2.103c1.2-2.802,2.265-5.68,3.165-8.553 c0.661-2.108-0.513-4.353-2.621-5.013c-2.108-0.662-4.352,0.513-5.013,2.621c-0.82,2.617-1.791,5.24-2.885,7.796 C186.453,159.082,187.395,161.433,189.426,162.302z"/></g></svg>