<?xml version="1.0" encoding="iso-8859-1"?>
<!-- Generator: Adobe Illustrator 26.3.1, SVG Export Plug-In . SVG Version: 6.00 Build 0)  -->
<svg version="1.1" id="&#x421;&#x43B;&#x43E;&#x439;_1"
	 xmlns="http://www.w3.org/2000/svg" xmlns:xlink="http://www.w3.org/1999/xlink" x="0px" y="0px" viewBox="0 0 64 64"
	 style="enable-background:new 0 0 64 64;" xml:space="preserve">
<path style="fill:#FFA500;" d="M51.137,31.807c-2.652,3.395-6.891,5.488-11.604,5.159c-6.617-0.461-12.039-5.883-12.499-12.5
	c-0.328-4.712,1.765-8.951,5.159-11.603c1.632-1.275,0.637-3.927-1.431-3.818c-6.408,0.337-12.699,3.339-17.07,9.022
	c-6.37,8.283-6.24,20.079,0.291,28.236c8.727,10.9,24.687,11.554,34.281,1.96c4.177-4.177,6.405-9.56,6.691-15.028
	C55.063,31.169,52.411,30.175,51.137,31.807z"/>
<g>
	<path style="opacity:0.15;" d="M48.263,48.263c3.346-3.346,5.419-7.469,6.268-11.785c-2.398-0.736-5.016,0.399-6.044,2.753
		c-0.895,2.048-2.16,3.897-3.759,5.497c-3.598,3.599-8.575,5.507-13.671,5.247c-2.585-0.144-4.769,1.709-5.17,4.196
		C33.601,56.291,42.202,54.325,48.263,48.263z"/>
	<path style="opacity:0.3;fill:#FFFFFF;" d="M17.655,21.115c1.673-2.175,3.724-3.896,6.096-5.118
		c2.29-1.178,3.259-3.874,2.358-6.224c-4.716,1.24-9.115,4.001-12.417,8.294c-4.242,5.515-5.584,12.585-4.091,19.104
		c2.497-0.303,4.426-2.418,4.398-4.992C13.958,28.165,15.256,24.235,17.655,21.115z"/>
</g>
<ellipse style="opacity:0.3;" cx="32" cy="61" rx="19" ry="3"/>
<path style="fill:none;stroke:#FFFFFF;stroke-width:3;stroke-linecap:round;stroke-linejoin:round;stroke-miterlimit:10;" d="
	M15.047,23.427c1.064-2.096,2.506-3.969,4.235-5.53"/>
<path style="fill:#68E5FD;" d="M42.251,22.226l1.869,1.022c0.815,0.446,0.815,1.616,0,2.061l-1.869,1.022
	c-0.197,0.108-0.359,0.27-0.467,0.467l-1.022,1.869c-0.446,0.815-1.616,0.815-2.061,0l-1.022-1.869
	c-0.108-0.197-0.27-0.359-0.467-0.467l-1.869-1.022c-0.815-0.446-0.815-1.616,0-2.061l1.869-1.022
	c0.197-0.108,0.359-0.27,0.467-0.467L38.7,19.89c0.446-0.815,1.616-0.815,2.061,0l1.022,1.869
	C41.892,21.956,42.054,22.118,42.251,22.226z"/>
<path style="fill:#68E5FD;" d="M52.255,11.815l2.243,1.227c0.978,0.535,0.978,1.939,0,2.473l-2.243,1.227
	c-0.237,0.129-0.431,0.324-0.56,0.56l-1.227,2.243c-0.535,0.978-1.939,0.978-2.473,0l-1.227-2.243
	c-0.129-0.237-0.324-0.431-0.56-0.56l-2.243-1.227c-0.978-0.535-0.978-1.939,0-2.473l2.243-1.227c0.237-0.129,0.431-0.324,0.56-0.56
	l1.227-2.243c0.535-0.978,1.939-0.978,2.473,0l1.227,2.243C51.824,11.492,52.018,11.686,52.255,11.815z"/>
</svg>